<?xml version="1.0" encoding="UTF-8"?>
<!DOCTYPE svg PUBLIC "-//W3C//DTD SVG 1.1//EN" "http://www.w3.org/Graphics/SVG/1.1/DTD/svg11.dtd">
<!-- Creator: CorelDRAW 2020 (64-Bit) -->
<svg xmlns="http://www.w3.org/2000/svg" xml:space="preserve" width="1.70666in" height="1.70666in" version="1.1" style="shape-rendering:geometricPrecision; text-rendering:geometricPrecision; image-rendering:optimizeQuality; fill-rule:evenodd; clip-rule:evenodd"
viewBox="0 0 1706.66 1706.66"
 xmlns:xlink="http://www.w3.org/1999/xlink"
 xmlns:xodm="http://www.corel.com/coreldraw/odm/2003"
 enable-background="new 0 0 480.063 480.063">
 <defs>
  <style type="text/css">
   <![CDATA[
    .fil0 {fill:black;fill-rule:nonzero}
    .fil7 {fill:#42434D;fill-rule:nonzero}
    .fil11 {fill:#4D4E59;fill-rule:nonzero}
    .fil3 {fill:#99EBFA;fill-rule:nonzero}
    .fil6 {fill:#D5EA79;fill-rule:nonzero}
    .fil1 {fill:#E7E9EF;fill-rule:nonzero}
    .fil10 {fill:#FFD6A6;fill-rule:nonzero}
    .fil5 {fill:#FFDFBA;fill-rule:nonzero}
    .fil8 {fill:#FFEBD2;fill-rule:nonzero}
    .fil4 {fill:#FFEE80;fill-rule:nonzero}
    .fil9 {fill:#FFF3E4;fill-rule:nonzero}
    .fil2 {fill:white;fill-rule:nonzero}
   ]]>
  </style>
 </defs>
 <g id="Layer_x0020_1">
  <metadata id="CorelCorpID_0Corel-Layer"/>
  <g id="photo_x0020__x0028_1_x0029_.svg">
   <g>
    <g>
     <path class="fil0" d="M258.91 1455.32l-81.36 0c-33.94,0 -61.52,-27.53 -61.52,-61.41l0 -875.72c0,-33.84 27.57,-61.41 61.52,-61.41l383.82 0c27.7,0 50.12,-22.48 50.12,-50.12 0,-27.64 -22.41,-50.13 -50.12,-50.13l-383.82 0.02c-89.22,0 -161.73,72.49 -161.73,161.69l0 875.72c0,89.19 72.5,161.69 161.73,161.69l81.36 -0.01c27.7,0 50.13,-22.41 50.13,-50.12 0.03,-27.64 -22.42,-50.18 -50.13,-50.18z"/>
     <path class="fil0" d="M1529.11 356.5l-81.36 0c-27.7,0 -50.13,22.49 -50.13,50.13 0,27.64 22.51,50.13 50.13,50.13l81.36 -0.02c33.94,0 61.52,27.53 61.52,61.45l0 875.72c0,33.88 -27.57,61.41 -61.52,61.41l-358.76 0c-27.64,0 -50.13,22.51 -50.13,50.12 0,27.7 22.51,50.13 50.13,50.13l358.76 -0.02c89.22,0 161.73,-72.49 161.73,-161.62l-0.02 -875.74c0,-89.15 -72.49,-161.69 -161.71,-161.69z"/>
     <path class="fil0" d="M231.62 322.49c27.7,0 50.13,-22.44 50.13,-50.12l0 -10.67c0,-5.76 4.7,-10.42 10.42,-10.42l80.79 0c5.72,0 10.42,4.67 10.42,10.42l0 10.67c0,27.68 22.52,50.12 50.13,50.12 27.61,0 50.12,-22.44 50.12,-50.12l-0.01 -10.67c0,-60.99 -49.64,-110.67 -110.63,-110.67l-80.79 0.01c-61.07,0 -110.69,49.66 -110.69,110.67l0 10.66c0.04,27.68 22.48,50.12 50.12,50.12z"/>
     <path class="fil0" d="M1411.05 956.09c0,-264.93 -215.57,-480.43 -480.4,-480.43 -264.82,0 -480.32,215.5 -480.32,480.43 0,264.89 215.5,480.4 480.32,480.4 264.94,0 480.4,-215.54 480.4,-480.4zm-480.39 380.09c-209.57,0 -380.05,-170.54 -380.05,-380.09 0,-209.61 170.58,-380.11 380.05,-380.11 209.72,0 380.19,170.54 380.19,380.11 0,209.57 -170.48,380.09 -380.19,380.09z"/>
     <path class="fil0" d="M930.66 638.58c-174.97,0 -317.42,142.42 -317.42,317.49 0,175.04 142.45,317.39 317.42,317.39 175.01,0 317.45,-142.42 317.45,-317.39 0.07,-175.04 -142.35,-317.49 -317.45,-317.49zm0 534.73c-119.72,0 -217.11,-97.48 -217.11,-217.21 0,-119.8 97.41,-217.17 217.11,-217.17 119.82,0 217.17,97.46 217.17,217.17 0.07,119.73 -97.31,217.21 -217.17,217.21z"/>
    </g>
   </g>
   <g>
   </g>
   <g>
   </g>
   <g>
   </g>
   <g>
   </g>
   <g>
   </g>
   <g>
   </g>
   <g>
   </g>
   <g>
   </g>
   <g>
   </g>
   <g>
   </g>
   <g>
   </g>
   <g>
   </g>
   <g>
   </g>
   <g>
   </g>
   <g>
   </g>
  </g>
  <polygon class="fil1" points="646.54,601.35 1116.43,341.6 1273.06,601.35 "/>
  <polygon class="fil1" points="447.17,1246.7 205.15,845.35 447.17,711.56 "/>
  <polygon class="fil1" points="872.1,1407.35 626.06,1543.36 544.04,1407.35 "/>
  <polygon class="fil2" points="1499.43,601.35 447.17,601.35 447.17,1407.35 1499.43,1407.35 "/>
  <polygon id="XMLID_165_" class="fil3" points="1383.68,712.18 562.92,712.18 562.92,1296.52 1383.68,1296.52 "/>
  <ellipse id="XMLID_152_" class="fil4" cx="946.99" cy="878.41" rx="57.87" ry="55.41"/>
  <path id="XMLID_197_" class="fil0" d="M179.74 838.83c1.81,-6.45 6.22,-11.95 12.26,-15.3l228.87 -126.51 0 -95.67c0,-13.91 11.78,-25.19 26.31,-25.19l192.32 0 463.79 -256.38c12.58,-6.95 28.67,-2.83 35.93,9.22l149.04 247.16 211.18 0c14.53,0 26.31,11.28 26.31,25.19l0 805.99c0,13.91 -11.78,25.19 -26.31,25.19l-620.28 0 -239.94 132.64c-4.14,2.29 -8.67,3.37 -13.13,3.37 -9.09,0 -17.94,-4.52 -22.81,-12.59l-74.42 -123.42 -81.68 0c-14.53,0 -26.31,-11.28 -26.31,-25.19l0 -153.89 -238.49 -395.51c-3.49,-5.78 -4.43,-12.66 -2.63,-19.11l-0 0zm927.06 -462.82l-362.09 200.16 482.78 0 -120.7 -200.16zm-471.12 1132.94l138.24 -76.42 -184.32 0 46.08 76.42zm-162.2 -126.79l999.64 0 0 -755.62 -999.64 0 0 755.62zm-52.61 -229.46l0 -397.52 -179.78 99.38 179.78 298.14z"/>
  <path id="XMLID_205_" class="fil0" d="M946.99 959.01c-46.42,0 -84.18,-36.16 -84.18,-80.6 0,-44.44 37.76,-80.6 84.18,-80.6 46.42,0 84.18,36.16 84.18,80.6 0,44.44 -37.76,80.6 -84.18,80.6zm0 -110.82c-17.41,0 -31.57,13.56 -31.57,30.22 0,16.67 14.16,30.22 31.57,30.22 17.41,0 31.57,-13.56 31.57,-30.22 0,-16.67 -14.16,-30.22 -31.57,-30.22z"/>
  <path id="XMLID_210_" class="fil0" d="M562.92 686.99l292 0c14.52,0 26.31,11.28 26.31,25.19 0,13.91 -11.78,25.19 -26.31,25.19l-265.69 0 0 479.45 166.23 -235.44c4.86,-6.89 12.97,-11.04 21.65,-11.08 0.05,0 0.09,0 0.14,0 8.63,0 16.72,4.06 21.64,10.86l136.94 189.67 213.25 -302.05c4.87,-6.89 12.97,-11.04 21.66,-11.08 0.05,0 0.09,0 0.14,0 8.63,0 16.72,4.06 21.64,10.86l164.85 228.31 0 -359.5 -265.7 0c-14.53,0 -26.31,-11.28 -26.31,-25.19 0,-13.91 11.78,-25.19 26.31,-25.19l292 0c14.53,0 26.31,11.28 26.31,25.19l0 584.35c0,13.91 -11.78,25.19 -26.31,25.19l-820.76 0c-14.53,0 -26.31,-11.28 -26.31,-25.19l0 -584.35c0,-13.91 11.78,-25.19 26.31,-25.19l0 0zm214.57 353.11l-163.26 231.23 250.63 0 39.35 -55.72 -126.72 -175.51zm579.87 145.34l-186.24 -257.94 -242.75 343.83 428.99 0 0 -85.89z"/>
  <path id="XMLID_212_" class="fil0" d="M973.3 737.35c-6.92,0 -13.7,-2.67 -18.59,-7.38 -4.89,-4.68 -7.71,-11.16 -7.71,-17.78 0,-6.65 2.81,-13.13 7.71,-17.83 4.89,-4.69 11.68,-7.38 18.59,-7.38 6.92,0 13.7,2.69 18.6,7.38 4.89,4.69 7.71,11.19 7.71,17.83 0,6.62 -2.81,13.09 -7.71,17.78 -4.89,4.71 -11.68,7.38 -18.6,7.38z"/>
  <g id="person.svg">
   <path class="fil5" d="M1134.13 1222.55l0 42.54c0,4.79 -3.88,8.67 -8.67,8.67l-316.4 0c-4.79,0 -8.67,-3.88 -8.67,-8.67l0 -42.54c0,-44.63 36.18,-80.79 80.82,-80.8 15.78,-0.01 29.67,-8.13 37.67,-20.44 8.03,-12.35 7.2,-23.08 7.2,-31.76l0.16 -0.4c-38.9,-16.1 -66.26,-54.43 -66.26,-99.15l0 -3.39c-15.45,0 -27.09,-12.21 -27.09,-26.59l0 -45.03c-0.35,-15.68 0.37,-70.97 40.31,-109.47 46.44,-44.76 120.04,-41.1 173.35,-17.15 1.73,0.78 1.68,3.26 -0.07,3.99l-13.9 5.72c-2.08,0.86 -1.64,3.93 0.59,4.16l6.75 0.73c32.32,3.46 62.35,21.01 80.96,50.22 0.5,0.79 0.36,1.99 -0.28,2.68 -11.49,12.15 -17.9,28.27 -17.9,45.03l0 59.13c0,14.68 -11.91,26.59 -26.59,26.59l-1.58 -0 0 3.39c0,44.72 -27.36,83.04 -66.26,99.14l0.16 0.4c0,8.43 -0.9,19.31 7.2,31.76 8,12.31 21.89,20.43 37.67,20.44 44.64,0.01 80.82,36.17 80.82,80.8l0 0z"/>
   <path class="fil6" d="M1134.13 1222.55l0 42.54c0,4.79 -3.88,8.67 -8.67,8.67l-316.4 0c-4.79,0 -8.67,-3.88 -8.67,-8.67l0 -42.54c0,-44.63 36.19,-80.78 80.81,-80.8 15.78,-0.01 29.67,-8.13 37.67,-20.44 27.91,23.84 68.84,23.85 96.76,0 7.99,12.31 21.89,20.43 37.67,20.44 44.63,0.02 80.81,36.17 80.81,80.8z"/>
   <path class="fil7" d="M1120.89 853.19c0.5,0.79 0.36,1.99 -0.28,2.67 -11.48,12.15 -17.89,28.27 -17.89,45.04l0 59.13c0,13.42 -10.11,26.59 -28.17,26.59l0 -66.93c0,-28.72 -23.29,-52.01 -52.01,-52.01l-110.52 0c-28.72,0 -52.01,23.28 -52.01,52.01l0 66.93c-15.44,0 -27.09,-12.2 -27.09,-26.59l0 -45.04c-0.35,-15.68 0.37,-70.97 40.31,-109.47 46.44,-44.76 120.04,-41.1 173.34,-17.15 1.74,0.78 1.69,3.26 -0.07,3.98l-13.9 5.72c-2.08,0.85 -1.64,3.92 0.59,4.16l6.75 0.72c32.33,3.46 62.34,21.01 80.96,50.23l0 0z"/>
   <path class="fil8" d="M1074.54 990.01c0,59.26 -48.05,107.27 -107.27,107.27 -55.8,0 -107.27,-43.38 -107.27,-110.67l0 -66.93c0,-28.72 23.28,-52.01 52.01,-52.01l110.52 0c28.72,0 52.01,23.28 52.01,52.01l0 70.32z"/>
   <path class="fil9" d="M942.98 1059.28c17.64,11.04 3.73,38.09 -15.57,30.34 -39.7,-15.93 -67.41,-54.61 -67.41,-99.61l0 -70.32c0,-10.93 3.37,-21.07 9.13,-29.44 7.06,-10.26 23.38,-5.73 23.38,7.77l0 70.32c0,39.56 20.8,72.37 50.48,90.94l0 0z"/>
   <path class="fil10" d="M1009.67 1107.35c-26.7,11.17 -56.03,12.04 -84.8,0 1.47,-6.1 1.22,-10.05 1.22,-17.8l0.16 -0.4c26.09,10.83 55.88,10.85 82.02,0l0.17 0.4c0,7.75 -0.24,11.7 1.22,17.8z"/>
   <path class="fil6" d="M924.88 1167.92c-4.01,1.26 -8.3,1.96 -12.91,2 -44.75,0.39 -81.23,35.78 -81.23,80.52l0 8.15c0,8.38 -6.79,15.17 -15.17,15.17l-6.5 0c-4.79,0 -8.67,-3.88 -8.67,-8.67l0 -42.54c0,-44.63 36.19,-80.78 80.82,-80.8 15.78,-0.01 29.67,-8.13 37.67,-20.44 3.22,2.75 6.67,5.23 10.3,7.39 15.99,9.52 13.44,33.64 -4.31,39.22l0 0z"/>
   <path class="fil6" d="M1009.65 1167.92c4,1.26 8.3,1.96 12.91,2 44.75,0.39 81.23,35.78 81.23,80.52l0 8.15c0,8.38 6.79,15.17 15.17,15.17l6.5 0c4.79,0 8.67,-3.88 8.67,-8.67l0 -42.54c0,-44.63 -36.19,-80.78 -80.81,-80.8 -15.78,-0.01 -29.67,-8.13 -37.67,-20.44 -3.22,2.75 -6.67,5.23 -10.31,7.39 -15.98,9.52 -13.44,33.64 4.31,39.22l0 0z"/>
   <path class="fil11" d="M1046.48 792.36c-12.74,5.24 -14.56,6.4 -18.97,5.71 -71.16,-11.03 -133.59,18.41 -154.8,87.54l0 0.01c-7.93,9.12 -12.72,21.04 -12.72,34.07l0 40.66c0,17.54 -27.09,18.76 -27.09,-0.32l0 -45.03c-0.35,-15.68 0.37,-70.97 40.31,-109.47 46.44,-44.76 120.04,-41.1 173.35,-17.15 1.73,0.78 1.68,3.26 -0.07,3.99l0 0z"/>
   <path class="fil0" d="M1142.8 1222.55l0 51.2c0,4.79 -3.88,8.67 -8.67,8.67 -4.79,0 -8.67,-3.88 -8.67,-8.67l0 -51.2c0,-39.87 -32.26,-72.13 -72.13,-72.13 -18.87,0 -35.98,-9.61 -45.79,-25.71 -2.49,-4.09 -1.2,-9.43 2.89,-11.91 4.09,-2.49 9.42,-1.2 11.91,2.89 6.63,10.89 18.21,17.39 30.98,17.39 49.45,0 89.47,40.02 89.47,89.47l0 0zm-151.27 -86.89c1.02,4.68 -1.95,9.3 -6.63,10.31 -22.81,4.97 -46.02,-0 -64.49,-12.61 -18.29,19.6 -42.45,17.06 -39.21,17.06 -39.87,0 -72.13,32.26 -72.13,72.13l0 51.2c0,4.79 -3.88,8.67 -8.67,8.67 -4.79,0 -8.67,-3.88 -8.67,-8.67l0 -51.2c0,-49.45 40.02,-89.47 89.47,-89.47 20,0 36.22,-16.12 36.22,-36.13l0 -2.28c-37.84,-18.09 -64.39,-56.11 -66.02,-100.38 -15.57,-3.74 -27.17,-17.68 -27.17,-34.26l0 -44.94c-0.48,-22 2.79,-77.09 42.96,-115.8 49.6,-47.81 129.14,-44.78 187.63,-16.62 5.7,2.75 6.57,10.45 1.83,14.44 29.63,7.23 55.18,25.44 71.59,51.51 0.85,1.34 2.4,3.45 2,6.81 -0.25,2.09 -0.87,3.86 -2.49,5.5 -10.56,10.71 -16.38,24.91 -16.38,39.98l0 59.13c0,4.79 -3.88,8.67 -8.67,8.67 -4.79,0 -8.67,-3.88 -8.67,-8.67l0 -59.13c0,-17.37 5.94,-33.87 16.84,-47.12 -16.62,-23.77 -42.55,-39.06 -71.87,-42.2l-15.24 -1.63c-8.91,-0.96 -10.66,-13.23 -2.38,-16.64l6.93 -2.85c-90.24,-31.46 -186.75,3.5 -186.75,124.53l0 45.03c0,6.88 3.96,12.86 9.75,15.86l0 -56.2c0,-33.46 27.22,-60.68 60.68,-60.68l110.52 0c33.46,0 60.68,27.22 60.68,60.67l0 70.98c0,75.39 -73.67,132.65 -148.63,110.58 -0.49,6.19 -2.03,12.15 -4.54,17.7 14.58,10.02 33,14.05 51.18,10.09 4.68,-1.02 9.3,1.95 10.31,6.63l0 0zm-24.27 -47.05c54.37,0 98.6,-44.23 98.6,-98.6l0 -70.32c0,-23.9 -19.44,-43.34 -43.34,-43.34l-110.52 0c-23.9,0 -43.34,19.44 -43.34,43.34l0 70.31c0,54.37 44.23,98.6 98.61,98.6l-0 0zm87.77 149.39l-26 0c-4.79,0 -8.67,3.88 -8.67,8.67 0,4.79 3.88,8.67 8.67,8.67l26 0c4.79,0 8.67,-3.88 8.67,-8.67 0,-4.79 -3.88,-8.67 -8.67,-8.67z"/>
  </g>
 </g>
</svg>
